<svg xmlns="http://www.w3.org/2000/svg" xmlns:xlink="http://www.w3.org/1999/xlink" width="500" zoomAndPan="magnify" viewBox="0 0 375 374.999991" height="500" preserveAspectRatio="xMidYMid meet" version="1.0"><defs><g/><clipPath id="8176798eec"><path d="M 136.894531 95.652344 L 238.144531 95.652344 L 238.144531 211.136719 L 136.894531 211.136719 Z M 136.894531 95.652344 " clip-rule="nonzero"/></clipPath></defs><rect x="-37.5" width="450" fill="#ffffff" y="-37.499999" height="449.999989" fill-opacity="1"/><rect x="-37.5" width="450" fill="#ffffff" y="-37.499999" height="449.999989" fill-opacity="1"/><rect x="-37.5" width="450" fill="#ffffff" y="-37.499999" height="449.999989" fill-opacity="1"/><g clip-path="url(#8176798eec)"><path fill="#27c499" d="M 219.335938 107.925781 L 219.335938 102.246094 L 143.433594 102.246094 L 143.433594 196.125 L 149.175781 201.875 L 149.175781 107.925781 L 180.011719 107.925781 L 180.011719 133.429688 L 173.484375 127.816406 L 166.890625 133.429688 L 166.890625 114.535156 L 155.703125 114.535156 L 155.703125 204.554688 L 162.992188 204.554688 L 162.992188 164.824219 L 181.210938 164.824219 L 181.210938 150.292969 L 199.5 150.292969 L 199.5 129.296875 L 224.25 129.296875 L 224.25 204.554688 L 231.535156 204.554688 L 231.535156 114.535156 L 183.242188 114.535156 L 183.242188 107.925781 Z M 169.496094 204.53125 L 181.210938 204.53125 L 181.210938 171.40625 L 169.496094 171.40625 Z M 199.5 204.53125 L 199.5 156.785156 L 187.785156 156.785156 L 187.785156 211.136719 L 149.175781 211.136719 L 136.90625 198.847656 L 136.90625 95.636719 L 225.863281 95.636719 L 225.863281 107.925781 L 238.132812 107.925781 L 238.132812 211.136719 L 199.5 211.136719 Z M 206.027344 204.53125 L 217.746094 204.53125 L 217.746094 135.878906 L 206.027344 135.878906 Z M 206.027344 204.53125 " fill-opacity="1" fill-rule="nonzero"/></g><g fill="#482953" fill-opacity="1"><g transform="translate(121.448838, 243.718945)"><g><path d="M 0.984375 -22.09375 L 6.8125 -22.09375 C 8.582031 -22.09375 9.84375 -21.519531 10.59375 -20.375 C 11.351562 -19.238281 11.734375 -17.570312 11.734375 -15.375 C 11.734375 -13.1875 11.394531 -11.535156 10.71875 -10.421875 C 10.050781 -9.304688 8.851562 -8.75 7.125 -8.75 L 5.328125 -8.75 L 5.328125 0 L 0.984375 0 Z M 5.578125 -12.734375 C 6.109375 -12.734375 6.5 -12.832031 6.75 -13.03125 C 7 -13.226562 7.160156 -13.507812 7.234375 -13.875 C 7.316406 -14.238281 7.359375 -14.765625 7.359375 -15.453125 C 7.359375 -16.378906 7.253906 -17.046875 7.046875 -17.453125 C 6.835938 -17.867188 6.425781 -18.078125 5.8125 -18.078125 L 5.328125 -18.078125 L 5.328125 -12.734375 Z M 5.578125 -12.734375 "/></g></g></g><g fill="#482953" fill-opacity="1"><g transform="translate(136.39446, 243.718945)"><g><path d="M 6.171875 0.203125 C 4.234375 0.203125 2.84375 -0.328125 2 -1.390625 C 1.164062 -2.453125 0.75 -4.035156 0.75 -6.140625 L 0.75 -13.703125 C 0.75 -15.441406 1.242188 -16.765625 2.234375 -17.671875 C 3.234375 -18.578125 4.625 -19.03125 6.40625 -19.03125 C 10.019531 -19.03125 11.828125 -17.253906 11.828125 -13.703125 L 11.828125 -12.34375 C 11.828125 -10.96875 11.8125 -9.851562 11.78125 -9 L 5.25 -9 L 5.25 -5.34375 C 5.25 -4.695312 5.316406 -4.1875 5.453125 -3.8125 C 5.585938 -3.445312 5.878906 -3.265625 6.328125 -3.265625 C 6.671875 -3.265625 6.914062 -3.367188 7.0625 -3.578125 C 7.207031 -3.785156 7.289062 -4.019531 7.3125 -4.28125 C 7.34375 -4.550781 7.359375 -4.941406 7.359375 -5.453125 L 7.359375 -7.28125 L 11.828125 -7.28125 L 11.828125 -6.203125 C 11.828125 -4.003906 11.398438 -2.382812 10.546875 -1.34375 C 9.703125 -0.3125 8.242188 0.203125 6.171875 0.203125 Z M 7.359375 -11.234375 L 7.359375 -13.65625 C 7.359375 -15.007812 7.023438 -15.6875 6.359375 -15.6875 C 5.597656 -15.6875 5.21875 -15.007812 5.21875 -13.65625 L 5.21875 -11.234375 Z M 7.359375 -11.234375 "/></g></g></g><g fill="#482953" fill-opacity="1"><g transform="translate(151.751647, 243.718945)"><g><path d="M 0.90625 -18.828125 L 5.40625 -18.828125 L 5.40625 -16.75 C 5.625 -17.476562 6.007812 -18.046875 6.5625 -18.453125 C 7.125 -18.859375 7.816406 -19.0625 8.640625 -19.0625 L 8.640625 -15.296875 C 8.003906 -15.296875 7.304688 -15.207031 6.546875 -15.03125 C 5.785156 -14.851562 5.40625 -14.644531 5.40625 -14.40625 L 5.40625 0 L 0.90625 0 Z M 0.90625 -18.828125 "/></g></g></g><g fill="#482953" fill-opacity="1"><g transform="translate(163.404758, 243.718945)"><g><path d="M 0.90625 -18.828125 L 5.484375 -18.828125 L 5.484375 -17.828125 C 6.128906 -18.628906 7.023438 -19.03125 8.171875 -19.03125 C 9.628906 -19.03125 10.644531 -18.539062 11.21875 -17.5625 C 11.800781 -16.582031 12.09375 -15.226562 12.09375 -13.5 L 12.09375 -6.53125 C 12.09375 -5.0625 12.003906 -3.859375 11.828125 -2.921875 C 11.660156 -1.984375 11.285156 -1.226562 10.703125 -0.65625 C 10.117188 -0.0820312 9.234375 0.203125 8.046875 0.203125 C 6.921875 0.203125 6.066406 -0.113281 5.484375 -0.75 L 5.484375 3.75 L 0.90625 3.75 Z M 6.5625 -3.296875 C 6.96875 -3.296875 7.226562 -3.484375 7.34375 -3.859375 C 7.46875 -4.234375 7.53125 -4.78125 7.53125 -5.5 L 7.53125 -13.5 C 7.53125 -14.15625 7.46875 -14.65625 7.34375 -15 C 7.226562 -15.34375 6.957031 -15.515625 6.53125 -15.515625 C 5.832031 -15.515625 5.484375 -14.859375 5.484375 -13.546875 L 5.484375 -5.296875 C 5.484375 -4.660156 5.554688 -4.164062 5.703125 -3.8125 C 5.847656 -3.46875 6.132812 -3.296875 6.5625 -3.296875 Z M 6.5625 -3.296875 "/></g></g></g><g fill="#482953" fill-opacity="1"><g transform="translate(179.070615, 243.718945)"><g><path d="M 4.53125 0.203125 C 3.125 0.203125 2.15625 -0.210938 1.625 -1.046875 C 1.101562 -1.890625 0.84375 -3.144531 0.84375 -4.8125 L 0.84375 -18.828125 L 5.375 -18.828125 L 5.375 -5.703125 C 5.375 -5.585938 5.375 -5.265625 5.375 -4.734375 C 5.375 -4.210938 5.453125 -3.84375 5.609375 -3.625 C 5.773438 -3.414062 6.03125 -3.3125 6.375 -3.3125 C 6.84375 -3.3125 7.132812 -3.503906 7.25 -3.890625 C 7.375 -4.273438 7.4375 -4.832031 7.4375 -5.5625 L 7.4375 -5.703125 L 7.453125 -18.828125 L 11.9375 -18.828125 L 11.9375 0 L 7.4375 0 L 7.4375 -2 C 7.125 -1.21875 6.757812 -0.65625 6.34375 -0.3125 C 5.9375 0.03125 5.332031 0.203125 4.53125 0.203125 Z M 4.53125 0.203125 "/></g></g></g><g fill="#482953" fill-opacity="1"><g transform="translate(194.710745, 243.718945)"><g><path d="M 6.0625 0.203125 C 2.34375 0.203125 0.484375 -1.679688 0.484375 -5.453125 L 0.515625 -6.9375 L 5.015625 -6.9375 L 5.046875 -4.734375 C 5.046875 -4.285156 5.128906 -3.945312 5.296875 -3.71875 C 5.472656 -3.488281 5.753906 -3.375 6.140625 -3.375 C 6.742188 -3.375 7.046875 -3.859375 7.046875 -4.828125 C 7.046875 -5.554688 6.90625 -6.125 6.625 -6.53125 C 6.34375 -6.945312 5.890625 -7.382812 5.265625 -7.84375 L 2.875 -9.703125 C 2.050781 -10.328125 1.457031 -10.976562 1.09375 -11.65625 C 0.738281 -12.332031 0.5625 -13.289062 0.5625 -14.53125 C 0.5625 -15.488281 0.8125 -16.304688 1.3125 -16.984375 C 1.820312 -17.660156 2.5 -18.171875 3.34375 -18.515625 C 4.1875 -18.859375 5.117188 -19.03125 6.140625 -19.03125 C 9.796875 -19.03125 11.625 -17.210938 11.625 -13.578125 L 11.625 -13.21875 L 6.96875 -13.21875 L 6.96875 -13.9375 C 6.96875 -14.382812 6.894531 -14.765625 6.75 -15.078125 C 6.601562 -15.398438 6.359375 -15.5625 6.015625 -15.5625 C 5.710938 -15.5625 5.476562 -15.46875 5.3125 -15.28125 C 5.144531 -15.101562 5.0625 -14.863281 5.0625 -14.5625 C 5.0625 -13.875 5.328125 -13.34375 5.859375 -12.96875 L 8.640625 -10.9375 C 9.640625 -10.195312 10.40625 -9.394531 10.9375 -8.53125 C 11.46875 -7.664062 11.734375 -6.570312 11.734375 -5.25 C 11.734375 -3.5 11.234375 -2.148438 10.234375 -1.203125 C 9.242188 -0.265625 7.851562 0.203125 6.0625 0.203125 Z M 6.0625 0.203125 "/></g></g></g><g fill="#482953" fill-opacity="1"><g transform="translate(209.733535, 243.718945)"><g><path d="M 0.390625 0 L 2.515625 -22.09375 L 10 -22.09375 L 12.109375 0 L 7.921875 0 L 7.609375 -3.578125 L 4.9375 -3.578125 L 4.6875 0 Z M 5.265625 -7.09375 L 7.28125 -7.09375 L 6.296875 -18.34375 L 6.09375 -18.34375 Z M 5.265625 -7.09375 "/></g></g></g><g fill="#482953" fill-opacity="1"><g transform="translate(225.013536, 243.718945)"><g><path d="M 0.90625 -18.828125 L 5.484375 -18.828125 L 5.484375 -17.828125 C 6.128906 -18.628906 7.023438 -19.03125 8.171875 -19.03125 C 9.628906 -19.03125 10.644531 -18.539062 11.21875 -17.5625 C 11.800781 -16.582031 12.09375 -15.226562 12.09375 -13.5 L 12.09375 -6.53125 C 12.09375 -5.0625 12.003906 -3.859375 11.828125 -2.921875 C 11.660156 -1.984375 11.285156 -1.226562 10.703125 -0.65625 C 10.117188 -0.0820312 9.234375 0.203125 8.046875 0.203125 C 6.921875 0.203125 6.066406 -0.113281 5.484375 -0.75 L 5.484375 3.75 L 0.90625 3.75 Z M 6.5625 -3.296875 C 6.96875 -3.296875 7.226562 -3.484375 7.34375 -3.859375 C 7.46875 -4.234375 7.53125 -4.78125 7.53125 -5.5 L 7.53125 -13.5 C 7.53125 -14.15625 7.46875 -14.65625 7.34375 -15 C 7.226562 -15.34375 6.957031 -15.515625 6.53125 -15.515625 C 5.832031 -15.515625 5.484375 -14.859375 5.484375 -13.546875 L 5.484375 -5.296875 C 5.484375 -4.660156 5.554688 -4.164062 5.703125 -3.8125 C 5.847656 -3.46875 6.132812 -3.296875 6.5625 -3.296875 Z M 6.5625 -3.296875 "/></g></g></g><g fill="#482953" fill-opacity="1"><g transform="translate(240.679398, 243.718945)"><g><path d="M 0.90625 -18.828125 L 5.484375 -18.828125 L 5.484375 -17.828125 C 6.128906 -18.628906 7.023438 -19.03125 8.171875 -19.03125 C 9.628906 -19.03125 10.644531 -18.539062 11.21875 -17.5625 C 11.800781 -16.582031 12.09375 -15.226562 12.09375 -13.5 L 12.09375 -6.53125 C 12.09375 -5.0625 12.003906 -3.859375 11.828125 -2.921875 C 11.660156 -1.984375 11.285156 -1.226562 10.703125 -0.65625 C 10.117188 -0.0820312 9.234375 0.203125 8.046875 0.203125 C 6.921875 0.203125 6.066406 -0.113281 5.484375 -0.75 L 5.484375 3.75 L 0.90625 3.75 Z M 6.5625 -3.296875 C 6.96875 -3.296875 7.226562 -3.484375 7.34375 -3.859375 C 7.46875 -4.234375 7.53125 -4.78125 7.53125 -5.5 L 7.53125 -13.5 C 7.53125 -14.15625 7.46875 -14.65625 7.34375 -15 C 7.226562 -15.34375 6.957031 -15.515625 6.53125 -15.515625 C 5.832031 -15.515625 5.484375 -14.859375 5.484375 -13.546875 L 5.484375 -5.296875 C 5.484375 -4.660156 5.554688 -4.164062 5.703125 -3.8125 C 5.847656 -3.46875 6.132812 -3.296875 6.5625 -3.296875 Z M 6.5625 -3.296875 "/></g></g></g></svg>